<svg id="Layer_1" data-name="Layer 1" xmlns="http://www.w3.org/2000/svg" xmlns:xlink="http://www.w3.org/1999/xlink" viewBox="0 0 458.55 478.82"><defs><style>.cls-1{fill:url(#linear-gradient);}.cls-2{fill:url(#linear-gradient-2);}.cls-3{fill:#fff;}.cls-4{fill:url(#linear-gradient-3);}.cls-5{fill:#49486b;}.cls-6{fill:#5d629e;}.cls-7{fill:#424143;}.cls-8{fill:#9aa7d5;}.cls-9{fill:#fec111;}.cls-10{fill:url(#linear-gradient-4);}.cls-11{fill:url(#linear-gradient-5);}.cls-12{fill:url(#linear-gradient-6);}</style><linearGradient id="linear-gradient" x1="322.29" y1="567.18" x2="556.12" y2="567.18" gradientTransform="translate(-360.18 190.99) rotate(-38.05)" gradientUnits="userSpaceOnUse"><stop offset="0.15" stop-color="#f8981d"/><stop offset="1" stop-color="#fec111"/></linearGradient><linearGradient id="linear-gradient-2" x1="322.29" y1="626.24" x2="439.21" y2="626.24" xlink:href="#linear-gradient"/><linearGradient id="linear-gradient-3" x1="439.21" y1="626.24" x2="556.12" y2="626.24" xlink:href="#linear-gradient"/><linearGradient id="linear-gradient-4" x1="320.45" y1="509" x2="554.28" y2="509" xlink:href="#linear-gradient"/><linearGradient id="linear-gradient-5" x1="320.45" y1="568.07" x2="437.36" y2="568.07" xlink:href="#linear-gradient"/><linearGradient id="linear-gradient-6" x1="437.36" y1="568.07" x2="554.28" y2="568.07" xlink:href="#linear-gradient"/></defs><title>bg1</title><g id="_Group_" data-name="&lt;Group&gt;"><polygon id="_Path_" data-name="&lt;Path&gt;" class="cls-1" points="243.21 438.95 293.67 313.73 427.34 294.82 376.88 420.04 243.21 438.95"/><polygon id="_Path_2" data-name="&lt;Path&gt;" class="cls-2" points="243.21 438.95 274.42 478.82 408.09 459.91 376.88 420.04 243.21 438.95"/><polygon id="_Path_3" data-name="&lt;Path&gt;" class="cls-3" points="254.96 445.15 262.82 455.19 296.49 450.43 288.63 440.39 254.96 445.15"/><polygon id="_Path_4" data-name="&lt;Path&gt;" class="cls-4" points="408.09 459.91 458.55 334.69 427.34 294.82 376.88 420.04 408.09 459.91"/><polygon id="_Path_5" data-name="&lt;Path&gt;" class="cls-3" points="327.89 471.26 296.68 431.38 323.41 427.6 354.62 467.48 327.89 471.26"/><polygon id="_Path_6" data-name="&lt;Path&gt;" class="cls-3" points="296.68 431.38 347.35 306.36 374.51 301.8 323.41 427.6 296.68 431.38"/></g><rect class="cls-5" x="417.41" y="249.73" width="4.82" height="293.56" transform="translate(-325.89 206.33) rotate(-38.05)"/><polygon class="cls-5" points="210.16 392.31 205.9 394.28 150.27 133.53 390.03 250.15 387.1 253.81 156.93 142.03 210.16 392.31"/><polygon class="cls-5" points="109.12 253.29 112.42 257.98 166.98 178.73 155.22 169.14 109.12 253.29"/><polygon class="cls-5" points="278.5 120.7 282.27 125.03 192.24 158.97 185.75 145.25 278.5 120.7"/><polygon id="_Path_7" data-name="&lt;Path&gt;" class="cls-5" points="220.54 43.37 224.3 40.42 206.45 7.03 192.41 18.02 220.54 43.37"/><polygon id="_Path_8" data-name="&lt;Path&gt;" class="cls-5" points="45.93 180.04 42.17 182.98 14.04 157.64 28.09 146.65 45.93 180.04"/><polygon class="cls-5" points="28.29 162.73 31.97 167.44 120.8 168.43 122.37 154.16 28.29 162.73"/><polygon class="cls-5" points="208.95 21.31 212.64 26.02 192.26 112.49 178.03 110.58 208.95 21.31"/><g id="_Group_2" data-name="&lt;Group&gt;"><rect id="_Path_9" data-name="&lt;Path&gt;" class="cls-6" x="354.12" y="307.32" width="6.41" height="12.22" transform="translate(-287.97 150.14) rotate(-38.05)"/></g><path id="_Path_10" data-name="&lt;Path&gt;" class="cls-5" d="M286.29,304.28l20.88,26.66.27,0a101.05,101.05,0,0,0,79.27-61.52h0l-20.09-25.66Z" transform="translate(-170.72 -136.73)"/><polygon id="_Path_11" data-name="&lt;Path&gt;" class="cls-6" points="20.6 157.16 6.24 192.81 0 193.69 3.66 170.35 17.7 153.44 20.6 157.16"/><polygon id="_Path_12" data-name="&lt;Path&gt;" class="cls-6" points="41.77 110.19 27.4 145.84 21.17 146.72 24.83 123.38 36.05 109.86 41.77 110.19"/><path id="_Path_13" data-name="&lt;Path&gt;" class="cls-5" d="M193.86,281.28a14,14,0,0,0-9.94,7.78c-1.49,3.72.53,6.3,4.5,5.74a14,14,0,0,0,9.94-7.78C199.85,283.3,197.83,280.72,193.86,281.28Z" transform="translate(-170.72 -136.73)"/><path id="_Path_14" data-name="&lt;Path&gt;" class="cls-5" d="M192.88,284.33a8.12,8.12,0,0,0-5.76,4.51c-.87,2.16.3,3.66,2.6,3.33a8.11,8.11,0,0,0,5.77-4.51C196.36,285.5,195.19,284,192.88,284.33Z" transform="translate(-170.72 -136.73)"/><path id="_Path_15" data-name="&lt;Path&gt;" class="cls-3" d="M192.33,283.63a8.09,8.09,0,0,0-5.76,4.51c-.87,2.16.3,3.66,2.61,3.33a8.14,8.14,0,0,0,5.76-4.51C195.81,284.8,194.64,283.3,192.33,283.63Z" transform="translate(-170.72 -136.73)"/><polygon id="_Path_16" data-name="&lt;Path&gt;" class="cls-6" points="204.4 13.28 242.47 7.89 244.82 2.05 221.28 0 201.5 9.57 204.4 13.28"/><polygon id="_Path_17" data-name="&lt;Path&gt;" class="cls-6" points="153.73 22.55 191.79 17.16 194.14 11.33 170.6 9.27 154.79 16.92 153.73 22.55"/><path id="_Path_18" data-name="&lt;Path&gt;" class="cls-5" d="M362.29,149.44a14,14,0,0,1,9.94-7.78c4-.56,6,2,4.49,5.74a14,14,0,0,1-9.94,7.78C362.81,155.75,360.79,153.16,362.29,149.44Z" transform="translate(-170.72 -136.73)"/><path id="_Path_19" data-name="&lt;Path&gt;" class="cls-7" d="M365.48,149.22a8.14,8.14,0,0,1,5.76-4.51c2.31-.32,3.48,1.17,2.61,3.33a8.09,8.09,0,0,1-5.76,4.51C365.78,152.88,364.61,151.38,365.48,149.22Z" transform="translate(-170.72 -136.73)"/><path id="_Path_20" data-name="&lt;Path&gt;" class="cls-3" d="M364.93,148.52A8.14,8.14,0,0,1,370.7,144c2.3-.33,3.47,1.17,2.6,3.33a8.09,8.09,0,0,1-5.76,4.51C365.24,152.18,364.06,150.68,364.93,148.52Z" transform="translate(-170.72 -136.73)"/><ellipse id="_Path_21" data-name="&lt;Path&gt;" class="cls-6" cx="325.89" cy="273.28" rx="50.35" ry="29.07" transform="translate(-269.9 122.24) rotate(-38.05)"/><polygon id="_Path_22" data-name="&lt;Path&gt;" class="cls-6" points="184.61 145.63 277.45 121.52 280.83 113.14 174.57 122.83 184.61 145.63"/><polygon id="_Path_23" data-name="&lt;Path&gt;" class="cls-6" points="155.22 169.14 109.12 253.29 100.16 254.56 135.09 153.73 155.22 169.14"/><polygon id="_Path_24" data-name="&lt;Path&gt;" class="cls-6" points="156.25 102.76 200 22.58 208.95 21.31 174.03 122.14 156.25 102.76"/><polygon id="_Path_25" data-name="&lt;Path&gt;" class="cls-6" points="122.7 130.53 31.67 154.35 28.29 162.73 134.55 153.04 122.7 130.53"/><polygon id="_Path_26" data-name="&lt;Path&gt;" class="cls-5" points="305.04 141.23 301.28 144.17 273.15 118.82 287.19 107.83 305.04 141.23"/><polygon id="_Path_27" data-name="&lt;Path&gt;" class="cls-6" points="279.71 118.34 265.34 154 259.1 154.88 262.76 131.53 276.8 114.63 279.71 118.34"/><polygon id="_Path_28" data-name="&lt;Path&gt;" class="cls-6" points="300.88 71.37 286.51 107.03 280.27 107.91 283.93 84.56 295.15 71.05 300.88 71.37"/><path id="_Path_29" data-name="&lt;Path&gt;" class="cls-5" d="M453,242.47a14,14,0,0,0-9.94,7.78c-1.5,3.72.52,6.3,4.49,5.74a14,14,0,0,0,9.94-7.78C459,244.49,456.94,241.91,453,242.47Z" transform="translate(-170.72 -136.73)"/><path id="_Path_30" data-name="&lt;Path&gt;" class="cls-7" d="M452,245.51a8.15,8.15,0,0,0-5.77,4.52c-.87,2.15.31,3.65,2.61,3.33a8.13,8.13,0,0,0,5.76-4.52C455.46,246.69,454.29,245.19,452,245.51Z" transform="translate(-170.72 -136.73)"/><path id="_Path_31" data-name="&lt;Path&gt;" class="cls-3" d="M451.44,244.81a8.15,8.15,0,0,0-5.77,4.52c-.87,2.15.31,3.65,2.61,3.33a8.15,8.15,0,0,0,5.77-4.52C454.91,246,453.74,244.49,451.44,244.81Z" transform="translate(-170.72 -136.73)"/><polygon id="_Path_32" data-name="&lt;Path&gt;" class="cls-5" points="121.82 284.65 125.58 281.7 107.73 248.31 93.69 259.3 121.82 284.65"/><polygon id="_Path_33" data-name="&lt;Path&gt;" class="cls-6" points="105.69 254.56 143.75 249.18 146.1 243.34 122.56 241.28 102.78 250.85 105.69 254.56"/><polygon id="_Path_34" data-name="&lt;Path&gt;" class="cls-6" points="55.01 263.83 93.07 258.45 95.42 252.6 71.88 250.55 56.06 258.2 55.01 263.83"/><path id="_Path_35" data-name="&lt;Path&gt;" class="cls-5" d="M263.57,390.73a14,14,0,0,1,9.94-7.79c4-.56,6,2,4.49,5.74a14,14,0,0,1-9.94,7.79C264.09,397,262.07,394.45,263.57,390.73Z" transform="translate(-170.72 -136.73)"/><path id="_Path_36" data-name="&lt;Path&gt;" class="cls-7" d="M266.76,390.51a8.13,8.13,0,0,1,5.76-4.52c2.31-.32,3.48,1.17,2.61,3.33a8.09,8.09,0,0,1-5.76,4.51C267.06,394.16,265.89,392.66,266.76,390.51Z" transform="translate(-170.72 -136.73)"/><path id="_Path_37" data-name="&lt;Path&gt;" class="cls-3" d="M266.21,389.81a8.13,8.13,0,0,1,5.77-4.52c2.3-.33,3.47,1.17,2.6,3.33a8.09,8.09,0,0,1-5.76,4.51C266.52,393.46,265.34,392,266.21,389.81Z" transform="translate(-170.72 -136.73)"/><path id="_Path_38" data-name="&lt;Path&gt;" class="cls-5" d="M371.25,317.67a8.36,8.36,0,1,1-11.73-1.43A8.35,8.35,0,0,1,371.25,317.67Z" transform="translate(-170.72 -136.73)"/><path id="_Path_39" data-name="&lt;Path&gt;" class="cls-3" d="M369.68,318.9a6.36,6.36,0,1,1-8.93-1.09A6.37,6.37,0,0,1,369.68,318.9Z" transform="translate(-170.72 -136.73)"/><circle id="_Path_40" data-name="&lt;Path&gt;" class="cls-5" cx="193.95" cy="186.09" r="4.25"/><path id="_Path_41" data-name="&lt;Path&gt;" class="cls-8" d="M366.24,321.59a2,2,0,1,1-2.8-.34A2,2,0,0,1,366.24,321.59Z" transform="translate(-170.72 -136.73)"/><path id="_Path_42" data-name="&lt;Path&gt;" class="cls-5" d="M336.77,246.28c-15.85,2.25-33.71,16.23-39.7,31.08s2.09,25.16,17.94,22.92,33.72-16.23,39.7-31.08S352.62,244,336.77,246.28Z" transform="translate(-170.72 -136.73)"/><rect class="cls-3" x="340.7" y="305.39" width="5.41" height="4.95" transform="translate(-287.49 140.38) rotate(-38.05)"/><rect class="cls-9" x="346.54" y="300.82" width="5.41" height="4.95" transform="translate(-283.43 143.01) rotate(-38.05)"/><rect class="cls-3" x="352.38" y="296.25" width="5.41" height="4.95" transform="translate(-279.38 145.64) rotate(-38.05)"/><g id="_Group_3" data-name="&lt;Group&gt;"><polygon id="_Path_43" data-name="&lt;Path&gt;" class="cls-10" points="205.9 394.28 256.36 269.06 390.03 250.15 339.57 375.36 205.9 394.28"/><polygon id="_Path_44" data-name="&lt;Path&gt;" class="cls-11" points="205.9 394.28 237.11 434.15 370.78 415.24 339.57 375.36 205.9 394.28"/><polygon id="_Path_45" data-name="&lt;Path&gt;" class="cls-3" points="217.65 400.48 225.51 410.52 259.18 405.76 251.32 395.71 217.65 400.48"/><polygon id="_Path_46" data-name="&lt;Path&gt;" class="cls-12" points="370.78 415.24 421.24 290.02 390.03 250.15 339.57 375.36 370.78 415.24"/><polygon id="_Path_47" data-name="&lt;Path&gt;" class="cls-3" points="290.58 426.58 259.37 386.71 286.1 382.93 317.31 422.8 290.58 426.58"/><polygon id="_Path_48" data-name="&lt;Path&gt;" class="cls-3" points="259.37 386.71 310.04 261.68 337.2 257.12 286.1 382.93 259.37 386.71"/></g><polygon class="cls-5" points="340.68 372.87 339.58 375.36 336.81 375.75 238.08 249.62 241.88 246.64 340.68 372.87"/></svg>